<svg xmlns="http://www.w3.org/2000/svg" width="129" height="123" viewBox="0 0 129 123" fill="none">
  <path d="M65.9266 3.24468L78.9016 43.1778C79.5041 45.0319 81.2319 46.2873 83.1814 46.2873H125.17C126.623 46.2873 127.227 48.1467 126.051 49.0008L92.0821 73.6808C90.5049 74.8267 89.845 76.8579 90.4474 78.712L103.422 118.645C103.871 120.027 102.29 121.176 101.114 120.322L67.145 95.6421C65.5678 94.4962 63.4322 94.4962 61.855 95.6421L27.8858 120.322C26.7102 121.176 25.1285 120.027 25.5775 118.645L38.5526 78.712C39.155 76.8579 38.4951 74.8267 36.9179 73.6808L2.94872 49.0008C1.77315 48.1467 2.37731 46.2873 3.83039 46.2873H45.8186C47.7681 46.2873 49.4959 45.0319 50.0984 43.1778L63.0734 3.24468C63.5224 1.86271 65.4776 1.86271 65.9266 3.24468Z" stroke="black" stroke-width="3"/>
</svg>